<?xml version="1.0" encoding="utf-8"?>
<!-- Generator: Adobe Illustrator 25.4.1, SVG Export Plug-In . SVG Version: 6.00 Build 0)  -->
<svg version="1.1" id="Capa_1" xmlns="http://www.w3.org/2000/svg" xmlns:xlink="http://www.w3.org/1999/xlink" x="0px" y="0px"
	 viewBox="0 0 800 800" style="enable-background:new 0 0 800 800;" xml:space="preserve">
<style type="text/css">
	.st0{fill:#212121;}
</style>
<desc>Created with Sketch.</desc>
<g id="_xD83D__xDD0D_-Product-Icons">
	<g id="ic_fluent_share_ios_48_filled">
		<path id="_xD83C__xDFA8_-Color" class="st0" d="M629.17,337.5c15.3,0,27.85,11.79,29.07,26.77l0.1,2.39v237.5
			c0,51.7-40.93,93.83-92.16,95.76L562.5,700h-325c-51.7,0-93.83-40.93-95.76-92.16l-0.07-3.68v-237.5
			c0-16.11,13.06-29.17,29.17-29.17c15.3,0,27.85,11.79,29.07,26.77l0.1,2.39v237.5c0,19.85,15.42,36.09,34.93,37.41l2.57,0.09h325
			c19.85,0,36.09-15.42,37.41-34.93l0.09-2.57v-237.5C600,350.56,613.06,337.5,629.17,337.5z M391.65,104.46l2.48-0.25l0,0
			l2.91-0.03l0,0l2.58,0.22l0,0l2.97,0.54l0,0l1.15,0.3l0,0c3.26,0.9,6.38,2.38,9.22,4.44l1.99,1.58l0,0l1.55,1.44l129.64,129.64
			c11.39,11.39,11.39,29.86,0,41.25c-10.72,10.72-27.71,11.35-39.17,1.89l-2.08-1.89L425,203.7V525c0,15.3-11.79,27.85-26.77,29.07
			l-2.39,0.1c-15.3,0-27.85-11.79-29.07-26.77l-0.1-2.39V203.77l-79.81,79.83c-10.72,10.72-27.71,11.35-39.17,1.89l-2.08-1.89
			c-10.72-10.72-11.35-27.71-1.89-39.17l1.89-2.08l129.2-129.23c0.93-0.97,1.93-1.87,2.99-2.7l1.89-1.35l0,0
			c0.63-0.44,1.29-0.84,1.96-1.22l0.31-0.15C384.91,106.07,388.18,104.96,391.65,104.46z"/>
	</g>
</g>
</svg>
